Patient4_TMGait_0pt6_01_left_35_EMG.mot
version=1
nRows=20
nColumns=33
inDegrees=no
endheader
time	1LAddLong	2LGlutMax	3LGlutMed	4LIliopsoas	5LSemiMemb	6LBicFemLong	7LRecFem	8LVastMed	9LVastLat	10LGasMed	11LTibAnt	12lTibPost	13LPeroneusLong	14LSol	15LExtDigLong	16LFlexDigLong	17RAddLong	18RGlutMax	19RGlutMed	20RIliopsoas	21RSemiMemb	22RBicFemLong	23RRecFem	24RVastMed	25RVastLat	26RGasMed	27RTibAnt	28RTibPost	29RPeroneusLong	30RSol	31RExtDigLong	32RFlexDigLong
42.53	-0.000763	-0.62393	-0.021973	0.001526	0.00946	-0.02655	0.13657	0.015106	-0.19516	0.039368	-0.001068	0.00824	0.13718	0.14435	-0.020599	-0.013733	0.010071	0.083771	0.54474	0.081177	-0.027924	0.002136	-0.29633	0.17364	0.1149	0.038452	0.067444	0.002136	-1.3269	-0.094604	-0.011139	-0.001373
42.531	0.003967	-0.5896	-0.0383	-0.017853	-0.001221	-0.00824	0.20767	0.021057	-0.19653	0.076294	0.062714	0.005646	0.068512	-0.018311	0.20645	-0.046997	0.019226	0.046997	0.74738	0.041504	-0.046997	0.11505	-0.044708	0.090637	0.03952	0.028992	0.11108	0.020752	0.28259	-0.18799	-0.006256	-0.00061
42.532	0.001984	-0.64331	-0.063782	-0.02594	-0.007629	-0.007477	0.25604	0.015411	-0.19058	0.013275	0.092773	0.015259	0.046234	-0.31647	0.059509	-0.026398	0.009308	-0.005798	0.68863	0.023956	-0.061035	-0.0177	0.058289	0.013885	0.064087	0.023956	0.062561	0.004883	2.122	-0.092163	-0.004578	0.00473
42.533	-0.000763	-0.63934	-0.042114	-0.00473	-0.002747	-0.006866	0.2533	0.016785	-0.18692	-0.001373	0.062714	0.013885	0.031738	-0.27374	0.045929	-0.018768	0.022278	0.080719	0.87112	-0.014954	-0.061646	-0.075531	0.066681	0.083008	0.15427	-0.007324	0.16693	-0.002289	-0.37918	0.02533	-0.015564	-0.001678
42.534	0.001984	-0.67291	-0.053558	-0.007324	-0.000916	-0.013275	0.23407	0.015411	-0.17868	-0.009003	0.019836	0.013733	0.056152	-0.14282	0.11383	-0.011292	0.02243	0.062408	0.98801	0.006561	-0.050659	0.000305	0.16663	0.15335	0.18112	-0.016174	0.11353	0.000763	-1.5636	-0.25223	-0.004272	0.000153
42.535	0.001984	-0.70084	-0.059662	-0.004883	0.001831	-0.019226	0.21332	0.014191	-0.19516	-0.0177	-0.088654	0.013733	0.095062	0.001678	0.010071	-0.005646	0.010376	0.058594	1.0184	-0.031891	0.000305	0.046082	0.24094	0.18768	0.20187	-0.028992	-0.1535	-0.004425	-0.80795	-0.21149	-0.018158	0.000305
42.536	-0.001984	-0.69763	-0.055695	0.002899	0.011292	-0.007477	0.18753	0.016022	-0.18799	-0.028534	-0.13123	0.004883	0.091858	0.091858	0.081177	0.006104	0.016785	0.031586	0.90225	-0.083008	0.003052	-0.004883	0.14969	0.046539	0.15457	-0.03067	-0.15076	-0.010986	-2.7792	-0.063782	-0.01709	0.003967
42.537	-0.000305	-0.71289	-0.032043	-0.016327	0.005341	-0.007324	0.15442	0.015106	-0.16647	-0.037079	-0.080414	0.003967	0.098877	0.006866	-0.009003	-0.003052	0.018158	0.019836	0.9372	-0.058441	0.027618	-0.1857	0.13473	-0.004578	0.13886	0.00824	-0.054779	-0.007782	-2.2195	0.024261	-0.015717	-0.003052
42.538	-0.000153	-0.74905	-0.04837	-0.006409	-0.015411	0.003662	0.092163	0.009155	-0.16266	-0.004883	0.062866	0.005188	0.067749	-0.2002	-0.084381	-0.011902	0.006866	0.022888	0.5748	0.001526	0.00061	-0.19012	0.10742	0.032654	0.067291	0.056152	-0.023499	-0.014038	-0.60654	-0.047455	-0.013885	0.001068
42.539	0.001221	-0.77057	-0.086975	-0.019989	-0.0354	-0.005341	0.041351	0.012054	-0.15488	-0.021667	0.10147	0.022583	0.052643	-0.20752	-0.55115	-0.020447	0.00412	-0.002899	0.58823	-0.015106	-0.01709	-0.19943	0.20065	0.034027	0.00473	0.0383	0.001068	-0.007019	0.21362	-0.17349	-0.015869	0.001984
42.54	-0.00061	-0.74707	-0.069275	-0.013733	-0.06897	-0.030518	0.025635	0.011597	-0.15854	-0.088043	0.13962	0.024109	0.10681	-0.1059	-0.2478	-0.016632	0.005188	-0.062256	0.6163	0.046997	0.006256	-0.20859	0.08606	0.003815	-0.040588	0.027618	0.014954	-0.010681	1.0365	-0.016632	-0.019226	-0.005798
42.541	0.006104	-0.78842	-0.043488	-0.001373	-0.012817	-0.055237	0	0.012054	-0.14587	-0.081787	0.31021	0.00412	0.06424	-0.096436	0.19058	0.003967	0.011292	-0.011139	0.56961	0.070953	0.01236	-0.15762	-0.20905	-0.10284	-0.11581	0.002289	-0.077667	-0.006409	1.6029	0.10941	-0.019684	-0.001678
42.542	0.001526	-0.78995	-0.043793	0.01709	0.024109	-0.046844	-0.005798	0.010071	-0.14343	-0.058441	-0.1619	0.016327	0.072174	-0.050354	0.16022	0.036926	-0.001068	-0.059509	0.75562	0.030212	0.011139	-0.09201	-0.65765	-0.13534	-0.18845	-0.018921	-0.055847	0.007629	2.2603	0.16785	-0.015106	-0.003357
42.543	0.005646	-0.75134	-0.035858	0.032501	0.045471	-0.056	0.018311	0.007019	-0.12909	-0.035248	-0.19913	0.02243	0.077362	0.018921	0.063477	0.12512	-0.011597	-0.053101	1.0799	0.12177	0.019836	-0.12787	-0.57709	-0.12558	-0.13351	-0.030823	-0.016632	-0.005341	1.7525	0.10361	-0.014954	-0.002899
42.544	0.020447	-0.76431	-0.041962	0.027161	0.004272	-0.037689	0.015869	0.016632	-0.15778	-0.020142	-0.019684	0.001984	0.006866	0.042267	0.036163	-0.56335	-0.009155	-0.054016	0.69168	0.21622	0.033417	-0.19775	-0.6189	-0.12711	0.040894	-0.021057	0.013275	-0.018616	0.33478	0.27969	-0.02182	0.000458
42.545	0.005493	-0.70999	-0.032959	-0.004578	0.016479	-0.055084	0.010071	0.007172	-0.16037	-0.011444	0.014801	0.002594	-0.028534	0.11231	0.12177	0.095978	0.004883	-0.10452	0.10956	0.17197	0.032196	-0.24582	-0.14786	-0.19547	0.065918	0.002136	0.14526	-0.011597	-1.4671	0.159	-0.021057	0.001831
42.546	0.006714	-0.71564	-0.032654	-0.029144	0.009613	-0.052795	0.018158	0.016785	-0.17425	-0.016479	-0.033569	0.006561	-0.016479	0.065308	0.23926	0.112	-0.014801	-0.15533	0.022736	0.032196	0.003967	-0.16068	-0.064392	-0.20248	0.094757	-0.014648	0.078735	0.02533	-1.2659	-0.11826	-0.014191	-0.002747
42.547	0.003204	-0.68756	-0.032501	-0.015259	0.014343	-0.075073	0.030212	0.009613	-0.19287	-0.036774	0.014496	-0.010071	0.025177	0.066833	-0.097656	-0.005493	-0.044098	-0.29587	-0.0354	-0.09201	0.00946	-0.20081	-0.058594	0.10819	0.1416	-0.011444	0.089722	-0.011749	-0.14771	-0.17853	-0.012817	-0.020599
42.548	0.012512	-0.70099	-0.071564	-0.004578	0.005493	-0.082703	0.037384	0.012207	-0.20111	-0.044403	-0.011444	-0.004272	0.013275	0.037842	-0.3125	0.002747	-0.024414	-0.35828	-0.38818	-0.051422	0.026245	-0.26062	0.17548	0.27145	0.20203	-0.023499	0.041962	-0.027924	-0.87326	-0.29007	-0.015259	-0.014038
42.549	0.006104	-0.67246	-0.073242	-0.002136	0.001984	-0.086823	0.012817	0.00412	-0.20371	-0.032196	-0.045319	0.005035	0.007324	0.003052	-0.33264	-0.00061	0.000305	-0.45776	-0.53497	-0.006256	0.021515	0.013275	0.43198	0.40283	0.20203	-0.016785	-0.077209	-0.019226	0.90134	-0.31006	-0.015259	-0.010071
